<?xml version="1.0" standalone="no"?>
<!DOCTYPE svg PUBLIC "-//W3C//DTD SVG 20010904//EN"
 "http://www.w3.org/TR/2001/REC-SVG-20010904/DTD/svg10.dtd">
<svg version="1.0" xmlns="http://www.w3.org/2000/svg"
 width="400.000000pt" height="400.000000pt" viewBox="0 0 400.000000 400.000000"
 preserveAspectRatio="xMidYMid meet">
<metadata>
Created by potrace 1.14, written by Peter Selinger 2001-2017
</metadata>
<g transform="translate(0.000000,400.000000) scale(0.100000,-0.100000)"
fill="#000000" stroke="none">
<path d="M2462 3664 c-30 -21 -28 -58 8 -102 79 -99 88 -190 96 -950 6 -541 1
-921 -23 -1679 -6 -191 -5 -205 17 -272 29 -91 56 -121 108 -121 31 0 46 7 69
30 l30 31 6 232 c4 127 7 330 7 450 0 119 2 217 5 217 2 0 74 11 158 25 117
19 213 27 397 33 238 7 242 8 261 31 23 28 25 81 4 121 -18 35 -101 77 -170
86 -36 4 -74 0 -135 -16 -47 -12 -183 -36 -302 -54 l-218 -32 0 237 0 238 33
6 c98 17 263 36 403 46 143 10 161 13 183 34 25 25 31 77 12 113 -12 23 -75
56 -142 73 -41 11 -55 10 -140 -15 -83 -24 -297 -66 -335 -66 -12 0 -14 34
-14 190 0 105 2 190 4 190 2 0 73 13 158 29 84 16 232 37 328 46 96 8 187 20
202 26 31 13 52 63 42 103 -9 36 -56 73 -116 91 -69 20 -103 19 -183 -6 -37
-11 -140 -36 -229 -55 -88 -19 -171 -36 -183 -39 -23 -5 -23 -4 -22 87 0 117
10 209 34 318 10 48 15 98 11 113 -12 51 -101 133 -217 200 -52 31 -113 35
-147 11z"/>
<path d="M1036 3579 c-33 -26 -33 -54 -1 -136 24 -58 25 -69 15 -121 -18 -97
-59 -219 -147 -437 -121 -301 -239 -520 -465 -868 -101 -155 -120 -197 -88
-197 35 0 188 119 291 226 80 84 180 206 218 268 13 21 27 34 31 29 40 -42 37
-729 -5 -1288 -16 -214 -12 -272 24 -342 32 -63 62 -85 111 -81 84 6 104 78
94 343 -7 186 13 1227 25 1340 13 124 -1 156 -111 240 l-26 20 113 250 c63
138 144 314 180 392 54 113 66 148 61 170 -11 42 -116 137 -197 177 -40 20
-77 36 -84 36 -7 0 -24 -9 -39 -21z"/>
<path d="M1876 3520 c-84 -26 -87 -76 -10 -149 89 -84 112 -160 121 -393 l6
-157 -54 -15 c-73 -21 -230 -52 -305 -61 -44 -5 -80 -2 -124 9 -34 9 -70 16
-80 16 -25 0 -40 -29 -40 -75 0 -61 96 -148 195 -176 23 -7 53 -2 135 25 58
19 142 46 188 60 l83 25 -3 -157 -3 -156 -56 -17 c-31 -9 -126 -29 -211 -44
l-154 -28 -52 27 c-64 33 -87 33 -108 1 -48 -73 46 -210 168 -247 34 -10 47
-9 86 7 46 18 265 95 309 109 l21 7 -5 -158 c-5 -128 -9 -160 -22 -170 -20
-15 -298 -135 -366 -158 -76 -25 -145 -23 -204 9 -28 14 -62 26 -75 26 -49 0
-72 -71 -42 -128 38 -71 192 -182 253 -182 26 0 83 30 231 119 108 66 198 118
200 116 6 -6 -29 -204 -53 -295 -29 -108 -117 -295 -196 -415 -30 -44 -100
-128 -156 -187 -57 -58 -103 -111 -103 -117 0 -6 15 -11 33 -11 85 0 368 226
483 386 71 100 150 303 173 449 23 149 41 455 56 967 8 293 20 612 27 708 19
270 19 267 -22 302 -41 35 -222 124 -265 131 -16 3 -43 2 -59 -3z"/>
</g>
</svg>
